<svg xmlns="http://www.w3.org/2000/svg" viewBox="0 0 800 400" fill="none">
  <rect width="800" height="400" rx="12" fill="#0f172a"/>
  <!-- Browser chrome -->
  <rect x="40" y="30" width="720" height="340" rx="8" fill="#1e293b" stroke="#334155" stroke-width="1"/>
  <circle cx="70" cy="50" r="6" fill="#ef4444"/>
  <circle cx="90" cy="50" r="6" fill="#eab308"/>
  <circle cx="110" cy="50" r="6" fill="#22c55e"/>
  <rect x="200" y="42" width="400" height="16" rx="8" fill="#0f172a"/>
  <!-- Title -->
  <rect x="60" y="80" width="180" height="16" rx="4" fill="#e2e8f0"/>
  <!-- Stats cards -->
  <rect x="60" y="110" width="165" height="70" rx="8" fill="#0f172a" stroke="#334155" stroke-width="1"/>
  <rect x="80" y="125" width="60" height="8" rx="4" fill="#94a3b8"/>
  <rect x="80" y="143" width="80" height="16" rx="4" fill="#4f46e5"/>
  <rect x="80" y="165" width="40" height="6" rx="3" fill="#22c55e"/>
  <rect x="240" y="110" width="165" height="70" rx="8" fill="#0f172a" stroke="#334155" stroke-width="1"/>
  <rect x="260" y="125" width="60" height="8" rx="4" fill="#94a3b8"/>
  <rect x="260" y="143" width="80" height="16" rx="4" fill="#06b6d4"/>
  <rect x="260" y="165" width="40" height="6" rx="3" fill="#22c55e"/>
  <rect x="420" y="110" width="165" height="70" rx="8" fill="#0f172a" stroke="#334155" stroke-width="1"/>
  <rect x="440" y="125" width="60" height="8" rx="4" fill="#94a3b8"/>
  <rect x="440" y="143" width="80" height="16" rx="4" fill="#8b5cf6"/>
  <rect x="440" y="165" width="40" height="6" rx="3" fill="#ef4444"/>
  <rect x="600" y="110" width="140" height="70" rx="8" fill="#0f172a" stroke="#334155" stroke-width="1"/>
  <rect x="620" y="125" width="60" height="8" rx="4" fill="#94a3b8"/>
  <rect x="620" y="143" width="80" height="16" rx="4" fill="#f59e0b"/>
  <rect x="620" y="165" width="40" height="6" rx="3" fill="#22c55e"/>
  <!-- Bar chart -->
  <rect x="60" y="200" width="440" height="160" rx="8" fill="#0f172a" stroke="#334155" stroke-width="1"/>
  <rect x="95" y="300" width="30" height="40" rx="4" fill="#4f46e5" opacity="0.7"/>
  <rect x="145" y="270" width="30" height="70" rx="4" fill="#4f46e5" opacity="0.8"/>
  <rect x="195" y="250" width="30" height="90" rx="4" fill="#4f46e5"/>
  <rect x="245" y="280" width="30" height="60" rx="4" fill="#4f46e5" opacity="0.7"/>
  <rect x="295" y="240" width="30" height="100" rx="4" fill="#4f46e5"/>
  <rect x="345" y="260" width="30" height="80" rx="4" fill="#4f46e5" opacity="0.85"/>
  <rect x="395" y="230" width="30" height="110" rx="4" fill="#4f46e5"/>
  <rect x="445" y="255" width="30" height="85" rx="4" fill="#4f46e5" opacity="0.75"/>
  <!-- Donut chart -->
  <rect x="520" y="200" width="220" height="160" rx="8" fill="#0f172a" stroke="#334155" stroke-width="1"/>
  <circle cx="630" cy="275" r="50" fill="none" stroke="#4f46e5" stroke-width="16" stroke-dasharray="120 200"/>
  <circle cx="630" cy="275" r="50" fill="none" stroke="#06b6d4" stroke-width="16" stroke-dasharray="80 200" stroke-dashoffset="-120"/>
  <circle cx="630" cy="275" r="50" fill="none" stroke="#8b5cf6" stroke-width="16" stroke-dasharray="50 200" stroke-dashoffset="-200"/>
  <text x="618" y="280" fill="#e2e8f0" font-family="sans-serif" font-size="16" font-weight="bold">78%</text>
</svg>
