<svg xmlns="http://www.w3.org/2000/svg" viewBox="0 0 800 400" fill="none">
  <rect width="800" height="400" rx="12" fill="#0f172a"/>
  <!-- Browser chrome -->
  <rect x="40" y="30" width="720" height="340" rx="8" fill="#1e293b" stroke="#334155" stroke-width="1"/>
  <circle cx="70" cy="50" r="6" fill="#ef4444"/>
  <circle cx="90" cy="50" r="6" fill="#eab308"/>
  <circle cx="110" cy="50" r="6" fill="#22c55e"/>
  <rect x="200" y="42" width="400" height="16" rx="8" fill="#0f172a"/>
  <!-- Sidebar -->
  <rect x="40" y="68" width="160" height="302" fill="#0f172a"/>
  <rect x="60" y="90" width="120" height="10" rx="5" fill="#4f46e5"/>
  <rect x="60" y="115" width="100" height="8" rx="4" fill="#334155"/>
  <rect x="60" y="135" width="110" height="8" rx="4" fill="#334155"/>
  <rect x="60" y="155" width="90" height="8" rx="4" fill="#334155"/>
  <rect x="60" y="175" width="105" height="8" rx="4" fill="#334155"/>
  <!-- Main content area -->
  <rect x="220" y="85" width="200" height="24" rx="4" fill="#e2e8f0"/>
  <!-- Cards row -->
  <rect x="220" y="125" width="160" height="80" rx="8" fill="#4f46e5" opacity="0.15"/>
  <rect x="240" y="145" width="60" height="20" rx="4" fill="#4f46e5"/>
  <rect x="240" y="175" width="100" height="8" rx="4" fill="#94a3b8"/>
  <rect x="400" y="125" width="160" height="80" rx="8" fill="#06b6d4" opacity="0.15"/>
  <rect x="420" y="145" width="60" height="20" rx="4" fill="#06b6d4"/>
  <rect x="420" y="175" width="100" height="8" rx="4" fill="#94a3b8"/>
  <rect x="580" y="125" width="160" height="80" rx="8" fill="#8b5cf6" opacity="0.15"/>
  <rect x="600" y="145" width="60" height="20" rx="4" fill="#8b5cf6"/>
  <rect x="600" y="175" width="100" height="8" rx="4" fill="#94a3b8"/>
  <!-- Chart area -->
  <rect x="220" y="225" width="520" height="130" rx="8" fill="#0f172a" stroke="#334155" stroke-width="1"/>
  <polyline points="250,330 310,310 370,290 430,300 490,270 550,260 610,280 670,240 710,250" stroke="#4f46e5" stroke-width="2.5" fill="none"/>
  <polyline points="250,330 310,310 370,290 430,300 490,270 550,260 610,280 670,240 710,250" stroke="none" fill="url(#chartGrad)" opacity="0.2"/>
  <defs>
    <linearGradient id="chartGrad" x1="0" y1="0" x2="0" y2="1">
      <stop offset="0%" stop-color="#4f46e5"/>
      <stop offset="100%" stop-color="#0f172a"/>
    </linearGradient>
  </defs>
</svg>
